<svg xmlns="http://www.w3.org/2000/svg" version="1.1" xmlns:xlink="http://www.w3.org/1999/xlink" xmlns:svgjs="http://svgjs.dev/svgjs" width="128" height="128" viewBox="0 0 128 128"><g transform="matrix(0.8046875,0,0,0.8046875,12.333870967741937,12.333870967741937)"><svg viewBox="0 0 155 155" data-background-color="#ffbe79" preserveAspectRatio="xMidYMid meet" height="128" width="128" xmlns="http://www.w3.org/2000/svg" xmlns:xlink="http://www.w3.org/1999/xlink"><g id="tight-bounds" transform="matrix(1,0,0,1,0.25,0.25)"><svg viewBox="0 0 154.5 154.5" height="154.5" width="154.5"><g><svg></svg></g><g><svg viewBox="0 0 154.5 154.5" height="154.5" width="154.5"><g transform="matrix(1,0,0,1,60.5361941715,59.016757278)"><svg viewBox="0 0 33.42761165699999 36.46648544399999" height="36.46648544399999" width="33.42761165699999"><g><svg viewBox="0 0 33.42761165699999 36.46648544399999" height="36.46648544399999" width="33.42761165699999"><g><svg viewBox="0 0 33.42761165699999 36.46648544399999" height="36.46648544399999" width="33.42761165699999"><g id="textblocktransform"><svg viewBox="0 0 33.42761165699999 36.46648544399999" height="36.46648544399999" width="33.42761165699999" id="textblock"><g><svg viewBox="0 0 33.42761165699999 36.46648544399999" height="36.46648544399999" width="33.42761165699999"><g><svg viewBox="0 0 33.42761165699999 36.46648544399999" height="36.46648544399999" width="33.42761165699999"><g><svg xmlns="http://www.w3.org/2000/svg" xmlns:xlink="http://www.w3.org/1999/xlink" version="1.1" x="0" y="0" viewBox="8.75 5 82.5 90" enable-background="new 0 0 100 100" xml:space="preserve" height="36.46648544399999" width="33.42761165699999" class="icon-icon-0" data-fill-palette-color="accent" id="icon-0"><path d="M50 61.25c1.372 0 2.674-0.107 3.909-0.311 0.33 1.919 1.166 3.514 2.436 4.952-4.138 2.489-8.834 2.436-12.949-0.159 1.366-1.498 2.294-3.096 2.668-4.898C47.32 61.106 48.632 61.25 50 61.25zM57.5 35c2.25 0 3.75-1.5 3.75-3.75s-1.5-3.75-3.75-3.75-3.75 1.5-3.75 3.75S55.25 35 57.5 35zM46.25 31.25c0-2.25-1.5-3.75-3.75-3.75s-3.75 1.5-3.75 3.75S40.25 35 42.5 35 46.25 33.5 46.25 31.25zM34.25 29c0-5.016 2.218-10.032 6.148-13.194 9.251 9.692 16.262 9.445 24.955 8.782 0.262 1.366 0.397 2.838 0.397 4.412 0 13.5-4.5 24-15.75 24C41 53 34.25 41 34.25 29zM87.5 75.5l-21-11.25c-3.745-1.872-4.86-4.037-5.17-6.129C69.82 52.657 73.25 40.829 73.25 29c0-14.25-9.375-24-23.25-24C35 5 26.75 17 26.75 29c0 10.676 4.179 22.491 11.996 28.416-0.168 2.305-1.079 4.75-5.246 6.834l-21 11.25C8.75 83 8.75 95 8.75 95h30l1.362-21.791c1.921 1.176 3.888 2 5.873 2.472L44.375 95h11.25l-1.61-19.319c1.985-0.472 3.952-1.296 5.873-2.472L61.25 95h30C91.25 95 91.25 83 87.5 75.5z" fill="#374151" data-fill-palette-color="accent"></path></svg></g></svg></g></svg></g></svg></g></svg></g></svg></g></svg></g><path d="M60.536 53.017L60.536 1 93.964 1 93.964 53.017 90.675 53.017 90.675 4.289 63.825 4.289 63.825 53.017 60.536 53.017M60.536 101.483L60.536 153.5 93.964 153.5 93.964 101.483 90.675 101.483 90.675 150.211 63.825 150.211 63.825 101.483 60.536 101.483" fill="#374151" stroke="transparent" data-fill-palette-color="primary"></path></svg></g><defs></defs></svg><rect width="154.5" height="154.5" fill="none" stroke="none" visibility="hidden"></rect></g></svg></g></svg>